<?xml version="1.0" standalone="no"?>
<!DOCTYPE svg PUBLIC "-//W3C//DTD SVG 1.1//EN"
"http://www.w3.org/Graphics/SVG/1.1/DTD/svg11.dtd">

<svg width="346" height="154" view_box="0 0 346 154"
xmlns="http://www.w3.org/2000/svg"
xmlns:link="http://www.w3.org/1999/xlink">\n\n<desc>Généré par Mocodo 2.3.7 le Wed, 26 Sep 2018 01:49:05</desc>

<rect id="frame" x="0" y="0" width="346" height="154" fill="#ffffbf" stroke="none" stroke-width="0"/>

<!-- Association RESERVER -->
<line x1="60" y1="77" x2="183" y2="77" stroke="#f46d43" stroke-width="2"/>
<text x="116" y="94.0" fill="#1a9850" font-family="Verdana" font-size="12">0,N</text>
<line x1="296" y1="77" x2="183" y2="77" stroke="#f46d43" stroke-width="2"/>
<text x="228" y="94.0" fill="#1a9850" font-family="Verdana" font-size="12">0,N</text>
<g id="association-RESERVER">
	<path d="M 209 43 a 14 14 90 0 1 14 14 V 68 h -80 V 57 a 14 14 90 0 1 14 -14" fill="#fdae61" stroke="#fdae61" stroke-width="0"/>
	<path d="M 223 68.0 v 29 a 14 14 90 0 1 -14 14 H 157 a 14 14 90 0 1 -14 -14 V 68.0 H 80" fill="#fee08b" stroke="#fee08b" stroke-width="0"/>
	<rect x="143" y="43" width="80" height="68" fill="none" rx="14" stroke="#f46d43" stroke-width="2"/>
	<line x1="143" y1="68" x2="223" y2="68" stroke="#f46d43" stroke-width="1"/>
	<text x="150" y="60.7" fill="#000000" font-family="Verdana" font-size="12">RESERVER</text>
	<text x="150" y="85.8" fill="#000000" font-family="Verdana" font-size="12">enAttente</text>
	<text x="150" y="102.8" fill="#000000" font-family="Verdana" font-size="12">numPlace</text>
</g>

<!-- Entity PARKINGS -->
<g id="entity-PARKINGS">
	<g id="frame-PARKINGS">
		<rect x="255" y="9" width="82" height="25" fill="#a6d96a" stroke="#a6d96a" stroke-width="0"/>
		<rect x="255" y="34.0" width="82" height="111" fill="#d9ef8b" stroke="#d9ef8b" stroke-width="0"/>
		<rect x="255" y="9" width="82" height="136" fill="none" stroke="#66bd63" stroke-width="2"/>
		<line x1="255" y1="34" x2="337" y2="34" stroke="#66bd63" stroke-width="1"/>
	</g>
	<text x="263" y="26.7" fill="#000000" font-family="Verdana" font-size="12">PARKINGS</text>
	<text x="260" y="51.7" fill="#000000" font-family="Verdana" font-size="12">idP</text>
	<line x1="260" y1="54" x2="279" y2="54" stroke="#000000" stroke-width="1"/>
	<text x="260" y="68.7" fill="#000000" font-family="Verdana" font-size="12">nomP</text>
	<text x="260" y="85.8" fill="#000000" font-family="Verdana" font-size="12">nbPlaces</text>
	<text x="260" y="102.8" fill="#000000" font-family="Verdana" font-size="12">adresseP</text>
	<text x="260" y="119.8" fill="#000000" font-family="Verdana" font-size="12">VilleP</text>
	<text x="260" y="136.8" fill="#000000" font-family="Verdana" font-size="12">codePostalP</text>
</g>

<!-- Entity UTILISATEURS -->
<g id="entity-UTILISATEURS">
	<g id="frame-UTILISATEURS">
		<rect x="9" y="18" width="102" height="25" fill="#a6d96a" stroke="#a6d96a" stroke-width="0"/>
		<rect x="9" y="43.0" width="102" height="93" fill="#d9ef8b" stroke="#d9ef8b" stroke-width="0"/>
		<rect x="9" y="18" width="102" height="118" fill="none" stroke="#66bd63" stroke-width="2"/>
		<line x1="9" y1="43" x2="111" y2="43" stroke="#66bd63" stroke-width="1"/>
	</g>
	<text x="14" y="35.7" fill="#000000" font-family="Verdana" font-size="12">UTILISATEURS</text>
	<text x="14" y="60.7" fill="#000000" font-family="Verdana" font-size="12">idU</text>
	<line x1="14" y1="63" x2="35" y2="63" stroke="#000000" stroke-width="1"/>
	<text x="14" y="77.8" fill="#000000" font-family="Verdana" font-size="12">nomU</text>
	<text x="14" y="94.8" fill="#000000" font-family="Verdana" font-size="12">adresseU</text>
	<text x="14" y="111.8" fill="#000000" font-family="Verdana" font-size="12">VilleU</text>
	<text x="14" y="128.8" fill="#000000" font-family="Verdana" font-size="12">codePostalU</text>
</g>
</svg>