<?xml version="1.0" standalone="no"?>
<!DOCTYPE svg PUBLIC "-//W3C//DTD SVG 1.1//EN"
"http://www.w3.org/Graphics/SVG/1.1/DTD/svg11.dtd">

<svg width="448" height="136" view_box="0 0 448 136"
xmlns="http://www.w3.org/2000/svg"
xmlns:link="http://www.w3.org/1999/xlink">\n\n<desc>Généré par Mocodo 2.3.7 le Thu, 27 Sep 2018 08:16:43</desc>

<rect id="frame" x="0" y="0" width="448" height="136" fill="#ffffbf" stroke="none" stroke-width="0"/>

<!-- Association Assigner -->
<line x1="79" y1="68" x2="231" y2="68" stroke="#f46d43" stroke-width="2"/>
<text x="154" y="85.0" fill="#3288bd" font-family="Verdana" font-size="12">0,N</text>
<line x1="376" y1="68" x2="231" y2="68" stroke="#f46d43" stroke-width="2"/>
<text x="286" y="85.0" fill="#3288bd" font-family="Verdana" font-size="12">0,N</text>
<g id="association-Assigner">
	<path d="M 267 26 a 14 14 90 0 1 14 14 V 51 h -100 V 40 a 14 14 90 0 1 14 -14" fill="#fdae61" stroke="#fdae61" stroke-width="0"/>
	<path d="M 281 51.0 v 45 a 14 14 90 0 1 -14 14 H 195 a 14 14 90 0 1 -14 -14 V 51.0 H 100" fill="#fee08b" stroke="#fee08b" stroke-width="0"/>
	<rect x="181" y="26" width="100" height="84" fill="none" rx="14" stroke="#f46d43" stroke-width="2"/>
	<line x1="181" y1="51" x2="281" y2="51" stroke="#f46d43" stroke-width="1"/>
	<text x="205" y="43.7" fill="#000000" font-family="Verdana" font-size="12">Assigner</text>
	<text x="188" y="68.8" fill="#000000" font-family="Verdana" font-size="12">status</text>
	<text x="188" y="85.8" fill="#000000" font-family="Verdana" font-size="12">début</text>
	<text x="188" y="102.8" fill="#000000" font-family="Verdana" font-size="12">numero_place</text>
</g>

<!-- Entity Utilisateurs -->
<g id="entity-Utilisateurs">
	<g id="frame-Utilisateurs">
		<rect x="9" y="9" width="140" height="25" fill="#abdda4" stroke="#abdda4" stroke-width="0"/>
		<rect x="9" y="34.0" width="140" height="93" fill="#e6f598" stroke="#e6f598" stroke-width="0"/>
		<rect x="9" y="9" width="140" height="118" fill="none" stroke="#66c2a5" stroke-width="2"/>
		<line x1="9" y1="34" x2="149" y2="34" stroke="#66c2a5" stroke-width="1"/>
	</g>
	<text x="44" y="26.7" fill="#000000" font-family="Verdana" font-size="12">Utilisateurs</text>
	<text x="14" y="51.7" fill="#000000" font-family="Verdana" font-size="12">identifiant_utilisateur</text>
	<line x1="14" y1="54" x2="143" y2="54" stroke="#000000" stroke-width="1"/>
	<text x="14" y="68.8" fill="#000000" font-family="Verdana" font-size="12">nom</text>
	<text x="14" y="85.8" fill="#000000" font-family="Verdana" font-size="12">email</text>
	<text x="14" y="102.8" fill="#000000" font-family="Verdana" font-size="12">mot_de_passe</text>
	<text x="14" y="119.8" fill="#000000" font-family="Verdana" font-size="12">inscription</text>
</g>

<!-- Entity Parking -->
<g id="entity-Parking">
	<g id="frame-Parking">
		<rect x="313" y="26" width="126" height="25" fill="#abdda4" stroke="#abdda4" stroke-width="0"/>
		<rect x="313" y="51.0" width="126" height="59" fill="#e6f598" stroke="#e6f598" stroke-width="0"/>
		<rect x="313" y="26" width="126" height="84" fill="none" stroke="#66c2a5" stroke-width="2"/>
		<line x1="313" y1="51" x2="439" y2="51" stroke="#66c2a5" stroke-width="1"/>
	</g>
	<text x="353" y="43.7" fill="#000000" font-family="Verdana" font-size="12">Parking</text>
	<text x="318" y="68.8" fill="#000000" font-family="Verdana" font-size="12">identifiant_parking</text>
	<line x1="318" y1="71" x2="433" y2="71" stroke="#000000" stroke-width="1"/>
	<text x="318" y="85.8" fill="#000000" font-family="Verdana" font-size="12">nombre_place</text>
	<text x="318" y="102.8" fill="#000000" font-family="Verdana" font-size="12">temps_utilisation</text>
</g>
</svg>